<?xml version="1.0" standalone="no"?>
<!DOCTYPE svg PUBLIC "-//W3C//DTD SVG 20010904//EN"
 "http://www.w3.org/TR/2001/REC-SVG-20010904/DTD/svg10.dtd">
<svg version="1.0" xmlns="http://www.w3.org/2000/svg"
 width="500.000000pt" height="500.000000pt" viewBox="0 0 500.000000 500.000000"
 preserveAspectRatio="xMidYMid meet">

<g transform="translate(0.000000,500.000000) scale(0.100000,-0.100000)"
fill="#000000" stroke="none">
<path d="M1220 2875 l0 -245 60 0 59 0 3 136 3 136 150 -216 149 -216 63 0 63
0 0 325 0 325 -65 0 -65 0 -2 -210 -3 -209 -145 209 -145 209 -62 1 -63 0 0
-245z"/>
<path d="M1797 2823 c2 -164 3 -310 3 -325 l0 -28 153 0 152 0 2 60 1 60 -94
0 -94 0 0 75 0 74 133 3 132 3 0 55 0 55 -132 3 -133 3 0 75 0 76 63 -2 c34
-1 77 -2 95 -1 l32 1 0 55 0 55 -158 0 -158 0 3 -297z"/>
<path d="M2588 3015 c-40 -58 -76 -105 -80 -105 -4 0 -21 20 -38 45 l-31 45
-75 0 -75 0 57 -82 c32 -46 64 -91 72 -100 17 -20 24 -7 -101 -182 -55 -77
-101 -146 -104 -153 -4 -10 11 -13 65 -13 l71 0 62 88 c35 48 70 97 80 110
l17 22 34 -46 34 -46 72 -1 c52 -2 71 1 68 10 -3 6 -34 52 -69 101 l-65 89
114 158 c63 87 114 160 114 162 0 2 -33 3 -74 3 l-75 0 -73 -105z"/>
<path d="M3210 2890 l0 -230 -29 -32 c-27 -30 -34 -33 -90 -33 -53 0 -64 4
-88 28 l-28 27 -5 178 -5 177 -60 0 -60 0 -3 -155 c-3 -182 7 -242 49 -293
106 -128 355 -107 420 36 17 38 19 68 19 285 l0 242 -60 0 -60 0 0 -230z"/>
<path d="M3463 3100 c-93 -48 -132 -174 -80 -262 30 -52 87 -87 157 -95 62 -7
100 -39 100 -82 0 -34 -33 -71 -62 -71 -15 0 -18 -9 -18 -61 l0 -62 36 6 c105
17 170 100 162 207 -7 99 -71 158 -191 175 -72 10 -103 52 -81 110 10 25 62
48 93 40 34 -9 61 -33 61 -57 0 -15 8 -18 60 -18 56 0 60 2 60 23 -1 44 -38
105 -81 134 -57 38 -155 44 -216 13z"/>
<path d="M2265 2790 c-18 -8 -18 -9 5 -9 14 0 34 4 45 9 18 8 18 9 -5 9 -14 0
-34 -4 -45 -9z"/>
<path d="M2695 2790 c11 -5 27 -9 35 -9 9 0 8 4 -5 9 -11 5 -27 9 -35 9 -9 0
-8 -4 5 -9z"/>
<path d="M1121 2319 c-76 -15 -126 -52 -158 -116 -26 -53 -28 -67 -28 -173 0
-87 4 -126 18 -162 43 -111 159 -151 328 -112 l69 16 0 62 0 63 -67 -15 c-141
-29 -195 -2 -207 104 -9 88 6 163 38 191 24 21 37 23 127 23 l99 0 0 59 0 58
-46 7 c-59 8 -117 6 -173 -5z"/>
<path d="M3816 2320 c-99 -25 -141 -87 -134 -197 6 -89 31 -112 157 -143 81
-20 92 -25 98 -48 5 -19 0 -30 -18 -45 -21 -17 -34 -19 -99 -13 -42 3 -90 10
-108 15 l-32 10 0 -69 0 -69 48 -8 c26 -4 88 -8 137 -7 114 0 167 24 196 87
37 82 18 198 -37 227 -13 8 -64 23 -112 35 -85 20 -87 22 -90 52 -5 47 22 57
130 49 l88 -6 0 59 c0 44 -4 60 -15 65 -30 11 -171 15 -209 6z"/>
<path d="M1468 2035 l-105 -285 73 0 72 0 17 50 17 51 101 -3 102 -3 15 -47
15 -48 73 0 c39 0 72 2 72 4 0 2 -45 128 -100 281 -55 153 -100 279 -100 281
0 2 -33 4 -73 4 l-74 0 -105 -285z m242 -72 c0 -2 -29 -3 -65 -3 -36 0 -65 4
-65 9 0 9 43 153 57 191 3 11 71 -171 73 -197z"/>
<path d="M1970 2278 c0 -24 -1 -152 -3 -286 l-2 -242 67 0 68 0 2 163 3 162
44 -107 43 -108 58 0 57 0 44 107 44 107 3 -162 2 -162 70 0 69 0 -4 283 -4
282 -77 3 c-55 2 -80 -1 -85 -10 -5 -7 -32 -70 -60 -140 -28 -71 -54 -126 -58
-123 -4 2 -31 65 -61 139 l-53 136 -84 0 -83 0 0 -42z"/>
<path d="M2620 2035 l0 -285 70 0 70 0 0 79 0 78 84 5 c107 6 169 35 200 93
29 55 30 175 1 224 -43 73 -102 91 -301 91 l-124 0 0 -285z m291 134 c17 -17
20 -29 16 -62 -8 -56 -24 -68 -101 -74 l-66 -6 0 82 0 81 65 0 c53 0 69 -4 86
-21z"/>
<path d="M3130 2116 c0 -208 5 -245 42 -299 66 -93 290 -102 375 -15 58 60 63
85 63 313 l0 205 -70 0 -70 0 0 -199 c0 -242 -1 -246 -100 -246 -99 0 -100 4
-100 246 l0 199 -70 0 -70 0 0 -204z"/>
<path d="M1660 1792 c0 -13 32 -39 58 -47 23 -7 23 -6 -4 24 -26 29 -54 41
-54 23z"/>
<path d="M3225 1710 c-3 -5 -1 -10 4 -10 6 0 11 5 11 10 0 6 -2 10 -4 10 -3 0
-8 -4 -11 -10z"/>
</g>
</svg>
